<mxfile host="app.diagrams.net" modified="2024-05-13T06:23:43.941Z" agent="Mozilla/5.0 (Macintosh; Intel Mac OS X 10_15_7) AppleWebKit/537.36 (KHTML, like Gecko) Chrome/124.0.0.0 Safari/537.36" etag="2M69noatKP_8ferzcM00" version="24.4.0" type="github">
  <diagram name="페이지-1" id="68j--ii99kryvkrACH99">
    <mxGraphModel dx="953" dy="731" grid="1" gridSize="10" guides="1" tooltips="1" connect="1" arrows="1" fold="1" page="1" pageScale="1" pageWidth="827" pageHeight="1169" math="0" shadow="0">
      <root>
        <mxCell id="0" />
        <mxCell id="1" parent="0" />
        <mxCell id="Ee1ppWPycikmYeckys_f-25" value="&lt;h2 style=&quot;&quot;&gt;&lt;br&gt;&lt;/h2&gt;" style="whiteSpace=wrap;html=1;aspect=fixed;fillColor=none;align=left;strokeWidth=2;" vertex="1" parent="1">
          <mxGeometry x="140" y="100" width="470" height="470" as="geometry" />
        </mxCell>
        <mxCell id="Ee1ppWPycikmYeckys_f-1" value="Actor" style="shape=umlActor;verticalLabelPosition=bottom;verticalAlign=top;html=1;outlineConnect=0;strokeWidth=2;" vertex="1" parent="1">
          <mxGeometry x="30" y="350" width="30" height="60" as="geometry" />
        </mxCell>
        <mxCell id="Ee1ppWPycikmYeckys_f-2" value="&lt;font style=&quot;font-size: 20px;&quot;&gt;생성&lt;/font&gt;" style="ellipse;whiteSpace=wrap;html=1;strokeWidth=2;" vertex="1" parent="1">
          <mxGeometry x="160" y="290" width="160" height="80" as="geometry" />
        </mxCell>
        <mxCell id="Ee1ppWPycikmYeckys_f-3" value="&lt;font style=&quot;font-size: 20px;&quot;&gt;조회&lt;/font&gt;" style="ellipse;whiteSpace=wrap;html=1;strokeWidth=2;" vertex="1" parent="1">
          <mxGeometry x="160" y="200" width="160" height="80" as="geometry" />
        </mxCell>
        <mxCell id="Ee1ppWPycikmYeckys_f-4" value="&lt;font style=&quot;font-size: 20px;&quot;&gt;삭제&lt;/font&gt;" style="ellipse;whiteSpace=wrap;html=1;strokeWidth=2;" vertex="1" parent="1">
          <mxGeometry x="160" y="470" width="160" height="80" as="geometry" />
        </mxCell>
        <mxCell id="Ee1ppWPycikmYeckys_f-5" value="&lt;font style=&quot;font-size: 20px;&quot;&gt;수정&lt;/font&gt;" style="ellipse;whiteSpace=wrap;html=1;strokeWidth=2;" vertex="1" parent="1">
          <mxGeometry x="160" y="380" width="160" height="80" as="geometry" />
        </mxCell>
        <mxCell id="Ee1ppWPycikmYeckys_f-11" value="" style="endArrow=classic;html=1;rounded=0;entryX=1;entryY=0.5;entryDx=0;entryDy=0;strokeWidth=2;exitX=0;exitY=0.5;exitDx=0;exitDy=0;" edge="1" parent="1" source="Ee1ppWPycikmYeckys_f-12" target="Ee1ppWPycikmYeckys_f-3">
          <mxGeometry width="50" height="50" relative="1" as="geometry">
            <mxPoint x="430" y="240" as="sourcePoint" />
            <mxPoint x="440" y="320" as="targetPoint" />
          </mxGeometry>
        </mxCell>
        <mxCell id="Ee1ppWPycikmYeckys_f-12" value="&lt;font style=&quot;font-size: 20px;&quot;&gt;선택조회&lt;/font&gt;" style="ellipse;whiteSpace=wrap;html=1;strokeWidth=2;" vertex="1" parent="1">
          <mxGeometry x="440" y="200" width="160" height="80" as="geometry" />
        </mxCell>
        <mxCell id="Ee1ppWPycikmYeckys_f-13" value="&lt;font style=&quot;font-size: 20px;&quot;&gt;전체조회&lt;/font&gt;" style="ellipse;whiteSpace=wrap;html=1;strokeWidth=2;" vertex="1" parent="1">
          <mxGeometry x="440" y="110" width="160" height="80" as="geometry" />
        </mxCell>
        <mxCell id="Ee1ppWPycikmYeckys_f-15" value="" style="endArrow=none;html=1;rounded=0;exitX=0;exitY=0.5;exitDx=0;exitDy=0;strokeWidth=2;" edge="1" parent="1" source="Ee1ppWPycikmYeckys_f-13">
          <mxGeometry width="50" height="50" relative="1" as="geometry">
            <mxPoint x="390" y="370" as="sourcePoint" />
            <mxPoint x="390" y="150" as="targetPoint" />
          </mxGeometry>
        </mxCell>
        <mxCell id="Ee1ppWPycikmYeckys_f-16" value="" style="endArrow=none;html=1;rounded=0;strokeWidth=2;" edge="1" parent="1">
          <mxGeometry width="50" height="50" relative="1" as="geometry">
            <mxPoint x="390" y="240" as="sourcePoint" />
            <mxPoint x="390" y="150" as="targetPoint" />
          </mxGeometry>
        </mxCell>
        <mxCell id="Ee1ppWPycikmYeckys_f-17" value="" style="endArrow=classic;html=1;rounded=0;dashed=1;exitX=1;exitY=0.5;exitDx=0;exitDy=0;entryX=0;entryY=0.5;entryDx=0;entryDy=0;strokeWidth=2;" edge="1" parent="1" source="Ee1ppWPycikmYeckys_f-2" target="Ee1ppWPycikmYeckys_f-18">
          <mxGeometry width="50" height="50" relative="1" as="geometry">
            <mxPoint x="420" y="330" as="sourcePoint" />
            <mxPoint x="430" y="430" as="targetPoint" />
          </mxGeometry>
        </mxCell>
        <mxCell id="Ee1ppWPycikmYeckys_f-18" value="&lt;font style=&quot;font-size: 20px;&quot;&gt;생성시 시간등록&lt;/font&gt;" style="ellipse;whiteSpace=wrap;html=1;strokeWidth=2;" vertex="1" parent="1">
          <mxGeometry x="440" y="290" width="160" height="80" as="geometry" />
        </mxCell>
        <mxCell id="Ee1ppWPycikmYeckys_f-19" value="&lt;font style=&quot;font-size: 20px;&quot;&gt;없을 시 메세지&lt;/font&gt;" style="ellipse;whiteSpace=wrap;html=1;strokeWidth=2;" vertex="1" parent="1">
          <mxGeometry x="440" y="420" width="160" height="80" as="geometry" />
        </mxCell>
        <mxCell id="Ee1ppWPycikmYeckys_f-21" value="" style="endArrow=classic;html=1;rounded=0;entryX=1;entryY=0.5;entryDx=0;entryDy=0;dashed=1;strokeWidth=2;" edge="1" parent="1" target="Ee1ppWPycikmYeckys_f-5">
          <mxGeometry width="50" height="50" relative="1" as="geometry">
            <mxPoint x="420" y="420" as="sourcePoint" />
            <mxPoint x="440" y="320" as="targetPoint" />
          </mxGeometry>
        </mxCell>
        <mxCell id="Ee1ppWPycikmYeckys_f-22" value="" style="endArrow=classic;html=1;rounded=0;entryX=1;entryY=0.5;entryDx=0;entryDy=0;dashed=1;strokeWidth=2;" edge="1" parent="1">
          <mxGeometry width="50" height="50" relative="1" as="geometry">
            <mxPoint x="420" y="509.5" as="sourcePoint" />
            <mxPoint x="320" y="509.5" as="targetPoint" />
          </mxGeometry>
        </mxCell>
        <mxCell id="Ee1ppWPycikmYeckys_f-23" value="" style="endArrow=none;dashed=1;html=1;rounded=0;strokeWidth=2;" edge="1" parent="1">
          <mxGeometry width="50" height="50" relative="1" as="geometry">
            <mxPoint x="420" y="510" as="sourcePoint" />
            <mxPoint x="420" y="420" as="targetPoint" />
          </mxGeometry>
        </mxCell>
        <mxCell id="Ee1ppWPycikmYeckys_f-24" value="" style="endArrow=none;dashed=1;html=1;dashPattern=1 3;strokeWidth=2;rounded=0;entryX=0;entryY=0.5;entryDx=0;entryDy=0;" edge="1" parent="1" target="Ee1ppWPycikmYeckys_f-19">
          <mxGeometry width="50" height="50" relative="1" as="geometry">
            <mxPoint x="420" y="460" as="sourcePoint" />
            <mxPoint x="440" y="320" as="targetPoint" />
          </mxGeometry>
        </mxCell>
        <mxCell id="Ee1ppWPycikmYeckys_f-26" value="&lt;span style=&quot;background-color: initial;&quot;&gt;&lt;font style=&quot;font-size: 24px;&quot;&gt;service&lt;/font&gt;&lt;/span&gt;" style="text;html=1;align=left;verticalAlign=middle;whiteSpace=wrap;rounded=0;" vertex="1" parent="1">
          <mxGeometry x="150" y="100" width="60" height="30" as="geometry" />
        </mxCell>
        <mxCell id="Ee1ppWPycikmYeckys_f-31" value="" style="endArrow=none;html=1;rounded=0;strokeWidth=2;entryX=0;entryY=0.5;entryDx=0;entryDy=0;" edge="1" parent="1" target="Ee1ppWPycikmYeckys_f-3">
          <mxGeometry width="50" height="50" relative="1" as="geometry">
            <mxPoint x="80" y="240" as="sourcePoint" />
            <mxPoint x="149.9999999999999" y="239.50000000000003" as="targetPoint" />
          </mxGeometry>
        </mxCell>
        <mxCell id="Ee1ppWPycikmYeckys_f-32" value="" style="endArrow=none;html=1;rounded=0;strokeWidth=2;entryX=0;entryY=0.5;entryDx=0;entryDy=0;" edge="1" parent="1" target="Ee1ppWPycikmYeckys_f-4">
          <mxGeometry width="50" height="50" relative="1" as="geometry">
            <mxPoint x="80" y="510" as="sourcePoint" />
            <mxPoint x="149.9999999999999" y="509.5" as="targetPoint" />
          </mxGeometry>
        </mxCell>
        <mxCell id="Ee1ppWPycikmYeckys_f-33" value="" style="endArrow=none;html=1;rounded=0;strokeWidth=2;entryX=0;entryY=0.5;entryDx=0;entryDy=0;" edge="1" parent="1" target="Ee1ppWPycikmYeckys_f-5">
          <mxGeometry width="50" height="50" relative="1" as="geometry">
            <mxPoint x="80" y="420" as="sourcePoint" />
            <mxPoint x="149.9999999999999" y="420" as="targetPoint" />
          </mxGeometry>
        </mxCell>
        <mxCell id="Ee1ppWPycikmYeckys_f-34" value="" style="endArrow=none;html=1;rounded=0;strokeWidth=2;entryX=0;entryY=0.5;entryDx=0;entryDy=0;" edge="1" parent="1" target="Ee1ppWPycikmYeckys_f-2">
          <mxGeometry width="50" height="50" relative="1" as="geometry">
            <mxPoint x="80" y="330" as="sourcePoint" />
            <mxPoint x="149.9999999999999" y="329.5" as="targetPoint" />
          </mxGeometry>
        </mxCell>
        <mxCell id="Ee1ppWPycikmYeckys_f-35" value="" style="endArrow=none;html=1;rounded=0;strokeWidth=2;" edge="1" parent="1">
          <mxGeometry width="50" height="50" relative="1" as="geometry">
            <mxPoint x="80" y="510" as="sourcePoint" />
            <mxPoint x="80" y="240" as="targetPoint" />
          </mxGeometry>
        </mxCell>
        <mxCell id="Ee1ppWPycikmYeckys_f-36" value="" style="endArrow=none;html=1;rounded=0;strokeWidth=2;" edge="1" parent="1" source="Ee1ppWPycikmYeckys_f-1">
          <mxGeometry width="50" height="50" relative="1" as="geometry">
            <mxPoint x="390" y="450" as="sourcePoint" />
            <mxPoint x="80" y="380" as="targetPoint" />
          </mxGeometry>
        </mxCell>
      </root>
    </mxGraphModel>
  </diagram>
</mxfile>
